<?xml version="1.0" encoding="UTF-8"?>
<svg id="Layer_2" data-name="Layer 2" xmlns="http://www.w3.org/2000/svg" viewBox="0 0 280.96 87">
  <defs>
    <style>
      .cls-1 {
        fill: #fff;
      }

      .cls-2 {
        fill: red;
      }

      .cls-3 {
        fill: #006c73;
      }
    </style>
  </defs>
  <g id="Layer_1-2" data-name="Layer 1">
    <g>
      <rect class="cls-2" x="76" width="129" height="87" rx="16.18" ry="16.18"/>
      <polygon class="cls-1" points="165.97 43.78 127 69 127 18.56 165.97 43.78"/>
      <path class="cls-3" d="M65.58,38.07l-22.18-14.35c-4.62-2.99-8.4-.93-8.4,4.57v8.72H6.5c-3.59,0-6.5,2.91-6.5,6.5h0c0,3.59,2.91,6.5,6.5,6.5h28.5v8.72c0,5.5,3.78,7.56,8.4,4.57l22.18-14.35c4.62-2.99,4.62-7.88,0-10.86Z"/>
      <path class="cls-3" d="M215.38,48.93l22.18,14.35c4.62,2.99,8.4.93,8.4-4.57v-8.72h28.5c3.59,0,6.5-2.91,6.5-6.5h0c0-3.59-2.91-6.5-6.5-6.5h-28.5v-8.72c0-5.5-3.78-7.56-8.4-4.57l-22.18,14.35c-4.62,2.99-4.62,7.88,0,10.86Z"/>
    </g>
  </g>
</svg>